{
	"asset":{
		"generator":"Khronos glTF Blender I/O v3.5.30",
		"version":"2.0"
	},
	"scene":0,
	"scenes":[
		{
			"name":"Scene",
			"nodes":[
				0
			]
		}
	],
	"nodes":[
		{
			"name":"Mball",
			"rotation":[
				0.09806399792432785,
				0,
				0,
				0.9951801300048828
			],
			"translation":[
				0.16124582290649414,
				0.018140137195587158,
				8.617901802062988
			]
		}
	],
	"animations":[
		{
			"channels":[
				{
					"sampler":0,
					"target":{
						"node":0,
						"path":"translation"
					}
				},
				{
					"sampler":1,
					"target":{
						"node":0,
						"path":"rotation"
					}
				},
				{
					"sampler":2,
					"target":{
						"node":0,
						"path":"scale"
					}
				}
			],
			"name":"Mball",
			"samplers":[
				{
					"input":0,
					"interpolation":"LINEAR",
					"output":1
				},
				{
					"input":0,
					"interpolation":"LINEAR",
					"output":2
				},
				{
					"input":0,
					"interpolation":"LINEAR",
					"output":3
				}
			]
		}
	],
	"accessors":[
		{
			"bufferView":0,
			"componentType":5126,
			"count":121,
			"max":[
				5
			],
			"min":[
				0
			],
			"type":"SCALAR"
		},
		{
			"bufferView":1,
			"componentType":5126,
			"count":121,
			"type":"VEC3"
		},
		{
			"bufferView":2,
			"componentType":5126,
			"count":121,
			"type":"VEC4"
		},
		{
			"bufferView":3,
			"componentType":5126,
			"count":121,
			"type":"VEC3"
		}
	],
	"bufferViews":[
		{
			"buffer":0,
			"byteLength":484,
			"byteOffset":0
		},
		{
			"buffer":0,
			"byteLength":1452,
			"byteOffset":484
		},
		{
			"buffer":0,
			"byteLength":1936,
			"byteOffset":1936
		},
		{
			"buffer":0,
			"byteLength":1452,
			"byteOffset":3872
		}
	],
	"buffers":[
		{
			"byteLength":5324,
			"uri":"scene.bin"
		}
	]
}
