{
	"asset":{
		"generator":"Khronos glTF Blender I/O v3.5.30",
		"version":"2.0"
	},
	"scene":0,
	"scenes":[
		{
			"name":"Scene",
			"nodes":[
				0
			]
		}
	],
	"nodes":[
		{
			"mesh":0,
			"name":"Mball",
			"rotation":[
				0.09806399047374725,
				0,
				0,
				0.9951801300048828
			],
			"translation":[
				0.16124582290649414,
				0.018140137195587158,
				8.617901802062988
			]
		}
	],
	"animations":[
		{
			"channels":[
				{
					"sampler":0,
					"target":{
						"node":0,
						"path":"translation"
					}
				},
				{
					"sampler":1,
					"target":{
						"node":0,
						"path":"rotation"
					}
				},
				{
					"sampler":2,
					"target":{
						"node":0,
						"path":"scale"
					}
				}
			],
			"name":"Mball",
			"samplers":[
				{
					"input":3,
					"interpolation":"LINEAR",
					"output":4
				},
				{
					"input":3,
					"interpolation":"LINEAR",
					"output":5
				},
				{
					"input":3,
					"interpolation":"LINEAR",
					"output":6
				}
			]
		}
	],
	"materials":[
		{
			"doubleSided":true,
			"name":"Material.001",
			"pbrMetallicRoughness":{
				"baseColorFactor":[
					0.800000011920929,
					0.800000011920929,
					0.800000011920929,
					1
				],
				"metallicFactor":0,
				"roughnessFactor":0.4000000059604645
			}
		}
	],
	"meshes":[
		{
			"name":"Mball.001",
			"primitives":[
				{
					"attributes":{
						"POSITION":0,
						"NORMAL":1
					},
					"indices":2,
					"material":0
				}
			]
		}
	],
	"accessors":[
		{
			"bufferView":0,
			"componentType":5126,
			"count":13504,
			"max":[
				1.1493587493896484,
				1.1493587493896484,
				1.1493576765060425
			],
			"min":[
				-1.1493587493896484,
				-2.463103771209717,
				-8.92676830291748
			],
			"type":"VEC3"
		},
		{
			"bufferView":1,
			"componentType":5126,
			"count":13504,
			"type":"VEC3"
		},
		{
			"bufferView":2,
			"componentType":5123,
			"count":81012,
			"type":"SCALAR"
		},
		{
			"bufferView":3,
			"componentType":5126,
			"count":121,
			"max":[
				5.041666666666667
			],
			"min":[
				0.041666666666666664
			],
			"type":"SCALAR"
		},
		{
			"bufferView":4,
			"componentType":5126,
			"count":121,
			"type":"VEC3"
		},
		{
			"bufferView":5,
			"componentType":5126,
			"count":121,
			"type":"VEC4"
		},
		{
			"bufferView":6,
			"componentType":5126,
			"count":121,
			"type":"VEC3"
		}
	],
	"bufferViews":[
		{
			"buffer":0,
			"byteLength":162048,
			"byteOffset":0,
			"target":34962
		},
		{
			"buffer":0,
			"byteLength":162048,
			"byteOffset":162048,
			"target":34962
		},
		{
			"buffer":0,
			"byteLength":162024,
			"byteOffset":324096,
			"target":34963
		},
		{
			"buffer":0,
			"byteLength":484,
			"byteOffset":486120
		},
		{
			"buffer":0,
			"byteLength":1452,
			"byteOffset":486604
		},
		{
			"buffer":0,
			"byteLength":1936,
			"byteOffset":488056
		},
		{
			"buffer":0,
			"byteLength":1452,
			"byteOffset":489992
		}
	],
	"buffers":[
		{
			"byteLength":491444,
			"uri":"data:application/octet-stream;base64,"
		}
	]
}
