{
	"asset":{
		"copyright":"Hippolyte",
		"generator":"Khronos glTF Blender I/O v3.5.30",
		"version":"2.0"
	},
	"extensionsUsed":[
		"KHR_materials_specular",
		"KHR_materials_ior"
	],
	"scene":0,
	"scenes":[
		{
			"name":"Scene",
			"nodes":[
				0
			]
		}
	],
	"nodes":[
		{
			"mesh":0,
			"name":"Curve.005",
			"rotation":[
				0.7070903182029724,
				0,
				0,
				0.7071232199668884
			],
			"scale":[
				1,
				0.75,
				1
			],
			"translation":[
				0.050930388271808624,
				0,
				0
			]
		}
	],
	"materials":[
		{
			"doubleSided":true,
			"extensions":{
				"KHR_materials_specular":{
					"specularColorFactor":[
						0.04036363601684571,
						0.04036363601684571,
						0.04036363601684571
					]
				},
				"KHR_materials_ior":{
					"ior":0
				}
			},
			"name":"Material",
			"pbrMetallicRoughness":{
				"baseColorFactor":[
					0.3492937982082367,
					1,
					0.2629912495613098,
					1
				],
				"roughnessFactor":0.07727272808551788
			}
		}
	],
	"meshes":[
		{
			"name":"Curve.005",
			"primitives":[
				{
					"attributes":{
						"POSITION":0,
						"NORMAL":1
					},
					"indices":2,
					"material":0
				}
			]
		}
	],
	"accessors":[
		{
			"bufferView":0,
			"componentType":5126,
			"count":944779,
			"max":[
				0.8003021478652954,
				0.04000009968876839,
				-0.15253333747386932
			],
			"min":[
				0.11477802693843842,
				-0.04000009968876839,
				-0.6547859311103821
			],
			"type":"VEC3"
		},
		{
			"bufferView":1,
			"componentType":5126,
			"count":944779,
			"type":"VEC3"
		},
		{
			"bufferView":2,
			"componentType":5125,
			"count":1427532,
			"type":"SCALAR"
		}
	],
	"bufferViews":[
		{
			"buffer":0,
			"byteLength":11337348,
			"byteOffset":0,
			"target":34962
		},
		{
			"buffer":0,
			"byteLength":11337348,
			"byteOffset":11337348,
			"target":34962
		},
		{
			"buffer":0,
			"byteLength":5710128,
			"byteOffset":22674696,
			"target":34963
		}
	],
	"buffers":[
		{
			"byteLength":28384824,
			"uri":"scene.bin"
		}
	]
}
