{
	"asset":{
		"generator":"Khronos glTF Blender I/O v3.5.30",
		"version":"2.0"
	},
	"extensionsUsed":[
		"KHR_lights_punctual",
		"KHR_materials_specular",
		"KHR_materials_ior"
	],
	"extensionsRequired":[
		"KHR_lights_punctual"
	],
	"extensions":{
		"KHR_lights_punctual":{
			"lights":[
				{
					"color":[
						0.46172311902046204,
						1,
						0.6842916011810303
					],
					"intensity":54351.41306588226,
					"type":"point",
					"name":"Light"
				}
			]
		}
	},
	"scene":0,
	"scenes":[
		{
			"name":"Scene",
			"nodes":[
				0,
				1,
				2
			]
		}
	],
	"nodes":[
		{
			"extensions":{
				"KHR_lights_punctual":{
					"light":0
				}
			},
			"name":"Light",
			"rotation":[
				0.11867097020149231,
				0.3370150029659271,
				0.7292826771736145,
				0.5835108757019043
			],
			"translation":[
				2.3606276512145996,
				0.727108359336853,
				5.486780166625977
			]
		},
		{
			"camera":0,
			"name":"Camera",
			"rotation":[
				0.006652322132140398,
				-0.0026873317547142506,
				1.8054906831821427e-05,
				0.9999743700027466
			],
			"translation":[
				1.9841055870056152,
				0.7407875657081604,
				6.300531387329102
			]
		},
		{
			"mesh":0,
			"name":"Curve",
			"rotation":[
				0.7071068286895752,
				0,
				0,
				0.7071068286895752
			],
			"scale":[
				17.692773818969727,
				17.692773818969727,
				17.692773818969727
			],
			"translation":[
				1.9636077880859375,
				0.9803082346916199,
				-0.009694855660200119
			]
		}
	],
	"cameras":[
		{
			"name":"Camera",
			"perspective":{
				"aspectRatio":1,
				"yfov":0.691111147403717,
				"zfar":100,
				"znear":0.10000000149011612
			},
			"type":"perspective"
		}
	],
	"animations":[
		{
			"channels":[
				{
					"sampler":0,
					"target":{
						"node":0,
						"path":"translation"
					}
				},
				{
					"sampler":1,
					"target":{
						"node":0,
						"path":"rotation"
					}
				},
				{
					"sampler":2,
					"target":{
						"node":0,
						"path":"scale"
					}
				}
			],
			"name":"Light",
			"samplers":[
				{
					"input":3,
					"interpolation":"LINEAR",
					"output":4
				},
				{
					"input":3,
					"interpolation":"LINEAR",
					"output":5
				},
				{
					"input":3,
					"interpolation":"LINEAR",
					"output":6
				}
			]
		},
		{
			"channels":[
				{
					"sampler":0,
					"target":{
						"node":1,
						"path":"translation"
					}
				},
				{
					"sampler":1,
					"target":{
						"node":1,
						"path":"rotation"
					}
				}
			],
			"name":"CameraAction.001",
			"samplers":[
				{
					"input":3,
					"interpolation":"LINEAR",
					"output":7
				},
				{
					"input":3,
					"interpolation":"LINEAR",
					"output":8
				}
			]
		},
		{
			"channels":[
				{
					"sampler":0,
					"target":{
						"node":2,
						"path":"translation"
					}
				},
				{
					"sampler":1,
					"target":{
						"node":2,
						"path":"rotation"
					}
				}
			],
			"name":"CurveAction.001",
			"samplers":[
				{
					"input":9,
					"interpolation":"STEP",
					"output":10
				},
				{
					"input":3,
					"interpolation":"LINEAR",
					"output":11
				}
			]
		}
	],
	"materials":[
		{
			"doubleSided":true,
			"extensions":{
				"KHR_materials_specular":{
					"specularColorFactor":[
						2.371357614441398,
						2.371357614441398,
						2.371357614441398
					]
				},
				"KHR_materials_ior":{
					"ior":1.4500000476837158
				}
			},
			"name":"Material.001",
			"pbrMetallicRoughness":{
				"baseColorFactor":[
					0.45011264085769653,
					0.8000000715255737,
					0.12977658212184906,
					1
				],
				"roughnessFactor":0.18409089744091034
			}
		}
	],
	"meshes":[
		{
			"name":"Curve",
			"primitives":[
				{
					"attributes":{
						"POSITION":0,
						"NORMAL":1
					},
					"indices":2,
					"material":0
				}
			]
		}
	],
	"accessors":[
		{
			"bufferView":0,
			"componentType":5126,
			"count":1840639,
			"max":[
				0.11092623323202133,
				0.0045480583794415,
				0.05378706008195877
			],
			"min":[
				-0.10839604586362839,
				-0.003452142234891653,
				-0.05200367048382759
			],
			"type":"VEC3"
		},
		{
			"bufferView":1,
			"componentType":5126,
			"count":1840639,
			"type":"VEC3"
		},
		{
			"bufferView":2,
			"componentType":5125,
			"count":2767020,
			"type":"SCALAR"
		},
		{
			"bufferView":3,
			"componentType":5126,
			"count":61,
			"max":[
				2.5
			],
			"min":[
				0
			],
			"type":"SCALAR"
		},
		{
			"bufferView":4,
			"componentType":5126,
			"count":61,
			"type":"VEC3"
		},
		{
			"bufferView":5,
			"componentType":5126,
			"count":61,
			"type":"VEC4"
		},
		{
			"bufferView":6,
			"componentType":5126,
			"count":61,
			"type":"VEC3"
		},
		{
			"bufferView":7,
			"componentType":5126,
			"count":61,
			"type":"VEC3"
		},
		{
			"bufferView":8,
			"componentType":5126,
			"count":61,
			"type":"VEC4"
		},
		{
			"bufferView":9,
			"componentType":5126,
			"count":1,
			"max":[
				0
			],
			"min":[
				0
			],
			"type":"SCALAR"
		},
		{
			"bufferView":10,
			"componentType":5126,
			"count":1,
			"type":"VEC3"
		},
		{
			"bufferView":11,
			"componentType":5126,
			"count":61,
			"type":"VEC4"
		}
	],
	"bufferViews":[
		{
			"buffer":0,
			"byteLength":22087668,
			"byteOffset":0,
			"target":34962
		},
		{
			"buffer":0,
			"byteLength":22087668,
			"byteOffset":22087668,
			"target":34962
		},
		{
			"buffer":0,
			"byteLength":11068080,
			"byteOffset":44175336,
			"target":34963
		},
		{
			"buffer":0,
			"byteLength":244,
			"byteOffset":55243416
		},
		{
			"buffer":0,
			"byteLength":732,
			"byteOffset":55243660
		},
		{
			"buffer":0,
			"byteLength":976,
			"byteOffset":55244392
		},
		{
			"buffer":0,
			"byteLength":732,
			"byteOffset":55245368
		},
		{
			"buffer":0,
			"byteLength":732,
			"byteOffset":55246100
		},
		{
			"buffer":0,
			"byteLength":976,
			"byteOffset":55246832
		},
		{
			"buffer":0,
			"byteLength":4,
			"byteOffset":55247808
		},
		{
			"buffer":0,
			"byteLength":12,
			"byteOffset":55247812
		},
		{
			"buffer":0,
			"byteLength":976,
			"byteOffset":55247824
		}
	],
	"buffers":[
		{
			"byteLength":55248800,
			"uri":"scene.bin"
		}
	]
}
